<svg width="167" height="226" viewBox="0 0 167 226" fill="none" xmlns="http://www.w3.org/2000/svg">
<path d="M83.9207 115.59C106.897 115.529 132.456 116.927 157.612 121.036C159.212 121.298 160.497 121.581 161.466 121.895C161.95 122.051 162.392 122.228 162.771 122.433C163.132 122.628 163.542 122.906 163.846 123.314C164.19 123.775 164.388 124.399 164.22 125.078C164.074 125.673 163.701 126.088 163.405 126.346C162.821 126.855 161.965 127.248 161.075 127.573C157.441 128.905 150.023 130.219 141.123 131.384C123.211 133.729 98.5189 135.56 83.9236 135.551C69.3584 135.542 47.5162 133.28 31.071 130.728C22.8614 129.454 15.9043 128.093 11.8464 126.881C10.8292 126.577 9.94927 126.27 9.2605 125.959C8.91639 125.804 8.58772 125.633 8.30151 125.444C8.03481 125.267 7.70055 125.006 7.45386 124.637C7.17701 124.222 6.96801 123.585 7.22339 122.884C7.44273 122.282 7.90188 121.939 8.19995 121.761C8.79827 121.403 9.63572 121.192 10.5232 121.039C24.4982 118.632 51.7 115.676 83.9207 115.59Z" fill="#9C5530" stroke="#B05726" stroke-width="3.14516"/>
<path d="M26.3755 203.516C16.6386 187.937 15.8849 157.657 15.8849 157.657V156.153C11.2433 154.949 8.16894 153.637 7.19273 152.262C1.4207 144.132 3.89485 132.297 4.79488 126.843C5.69491 121.39 11.9893 122.888 11.9893 122.888L9.21117 125.886C27.3073 134.902 145.088 137.924 159.756 125.57L157.059 122.589C161.255 122.589 163.653 126.843 163.653 126.843C163.653 126.843 165.852 142.845 161.255 151.663C160.108 153.863 157.117 155.698 152.73 157.206V157.657C152.73 157.657 151.905 188.142 141.772 203.516C131.64 218.891 33.8688 215.505 26.3755 203.516Z" fill="#E87537"/>
<path d="M15.8849 157.657H13.7882V157.683L13.7888 157.709L15.8849 157.657ZM26.3755 203.516L28.1536 202.405L26.3755 203.516ZM141.772 203.516L143.523 204.67L141.772 203.516ZM152.73 157.657L154.826 157.714L154.827 157.686V157.657H152.73ZM161.255 151.663L163.114 152.632L161.255 151.663ZM163.653 126.843L165.73 126.558L165.676 126.162L165.48 125.814L163.653 126.843ZM7.19273 152.262L5.48303 153.476H5.48303L7.19273 152.262ZM4.79488 126.843L2.72609 126.502L4.79488 126.843ZM11.9893 122.888L13.5271 124.314C14.0338 123.767 14.2121 122.992 13.9956 122.279C13.779 121.566 13.2 121.021 12.4749 120.849L11.9893 122.888ZM157.059 122.589V120.492C156.23 120.492 155.479 120.98 155.143 121.738C154.806 122.496 154.948 123.381 155.504 123.995L157.059 122.589ZM9.21117 125.886L7.67336 124.46L5.77011 126.514L8.27609 127.762L9.21117 125.886ZM159.756 125.57L161.107 127.174L162.769 125.775L161.311 124.164L159.756 125.57ZM15.8849 157.657C13.7888 157.709 13.7888 157.71 13.7888 157.71C13.7888 157.711 13.7889 157.711 13.7889 157.712C13.7889 157.713 13.789 157.715 13.789 157.717C13.7891 157.722 13.7893 157.728 13.7895 157.737C13.79 157.753 13.7906 157.776 13.7916 157.807C13.7934 157.868 13.7962 157.958 13.8003 158.074C13.8084 158.307 13.8216 158.648 13.8418 159.085C13.8822 159.96 13.9507 161.222 14.0635 162.783C14.2891 165.903 14.6924 170.229 15.4046 175.051C16.8162 184.609 19.484 196.446 24.5975 204.627L26.3755 203.516L28.1536 202.405C23.5301 195.007 20.9527 183.915 19.5532 174.438C18.8598 169.743 18.4662 165.525 18.2461 162.481C18.1362 160.96 18.0698 159.734 18.0309 158.892C18.0114 158.471 17.9989 158.146 17.9913 157.928C17.9874 157.819 17.9849 157.736 17.9832 157.682C17.9824 157.655 17.9819 157.635 17.9815 157.622C17.9813 157.616 17.9812 157.611 17.9811 157.608C17.9811 157.607 17.9811 157.606 17.9811 157.605C17.9811 157.605 17.9811 157.605 17.9811 157.605C17.9811 157.605 17.9811 157.605 15.8849 157.657ZM26.3755 203.516L24.5975 204.627C25.3135 205.773 26.4478 206.696 27.7145 207.458C29.0048 208.234 30.5841 208.932 32.3687 209.565C35.9386 210.832 40.5434 211.912 45.7914 212.803C56.3013 214.589 69.6525 215.661 83.0508 215.874C96.446 216.087 109.978 215.442 120.841 213.76C126.267 212.921 131.099 211.812 134.94 210.388C138.694 208.997 141.872 207.175 143.523 204.67L141.772 203.516L140.021 202.362C139.139 203.701 137.046 205.136 133.483 206.456C130.009 207.743 125.482 208.799 120.2 209.616C109.647 211.249 96.3682 211.892 83.1174 211.681C69.8699 211.471 56.74 210.41 46.4938 208.669C41.3637 207.797 37.0216 206.766 33.7709 205.613C32.1451 205.036 30.8456 204.447 29.8756 203.864C28.8819 203.266 28.3742 202.758 28.1536 202.405L26.3755 203.516ZM141.772 203.516L143.523 204.67C148.855 196.579 151.644 184.725 153.123 175.141C153.869 170.304 154.295 165.957 154.533 162.82C154.653 161.25 154.726 159.98 154.769 159.1C154.79 158.66 154.805 158.317 154.813 158.082C154.818 157.965 154.821 157.874 154.823 157.813C154.824 157.782 154.825 157.758 154.825 157.741C154.825 157.733 154.825 157.727 154.826 157.722C154.826 157.72 154.826 157.718 154.826 157.717C154.826 157.716 154.826 157.715 154.826 157.715C154.826 157.714 154.826 157.714 152.73 157.657C150.634 157.601 150.634 157.6 150.634 157.6C150.634 157.6 150.634 157.6 150.634 157.601C150.634 157.601 150.634 157.602 150.634 157.603C150.634 157.606 150.633 157.611 150.633 157.617C150.633 157.63 150.632 157.651 150.631 157.678C150.63 157.732 150.627 157.815 150.623 157.925C150.615 158.144 150.601 158.471 150.58 158.894C150.539 159.741 150.468 160.973 150.352 162.502C150.119 165.56 149.705 169.796 148.978 174.501C147.512 184.003 144.822 195.078 140.021 202.362L141.772 203.516ZM161.255 151.663L163.114 152.632C165.659 147.751 166.25 141.113 166.275 135.957C166.288 133.331 166.153 130.992 166.015 129.31C165.946 128.468 165.876 127.787 165.822 127.314C165.796 127.077 165.773 126.892 165.757 126.764C165.749 126.7 165.743 126.651 165.738 126.616C165.736 126.599 165.734 126.585 165.733 126.576C165.732 126.571 165.732 126.567 165.731 126.564C165.731 126.562 165.731 126.561 165.731 126.56C165.731 126.56 165.731 126.559 165.731 126.559C165.731 126.558 165.73 126.558 163.653 126.843C161.576 127.129 161.576 127.129 161.576 127.128C161.576 127.128 161.576 127.128 161.576 127.128C161.576 127.128 161.576 127.128 161.576 127.129C161.576 127.13 161.576 127.132 161.577 127.135C161.578 127.14 161.579 127.15 161.581 127.163C161.584 127.19 161.589 127.231 161.596 127.287C161.61 127.397 161.631 127.565 161.655 127.783C161.704 128.219 161.77 128.857 161.835 129.653C161.966 131.247 162.093 133.46 162.081 135.936C162.057 140.986 161.448 146.757 159.396 150.693L161.255 151.663ZM7.19273 152.262L8.90243 151.048C6.37529 147.489 5.57944 143.002 5.58855 138.553C5.59766 134.107 6.40192 129.983 6.86367 127.185L4.79488 126.843L2.72609 126.502C2.28781 129.158 1.40498 133.678 1.39501 138.545C1.38505 143.409 2.23814 148.905 5.48303 153.476L7.19273 152.262ZM4.79488 126.843L6.86367 127.185C7.01703 126.256 7.36151 125.781 7.67863 125.503C8.02735 125.199 8.50857 124.992 9.10524 124.884C9.70176 124.775 10.3139 124.783 10.8006 124.828C11.0378 124.849 11.2301 124.878 11.3567 124.9C11.4197 124.911 11.4653 124.92 11.4909 124.926C11.5037 124.928 11.5114 124.93 11.5136 124.931C11.5147 124.931 11.5145 124.931 11.5128 124.93C11.512 124.93 11.5108 124.93 11.5093 124.93C11.5085 124.929 11.5077 124.929 11.5067 124.929C11.5062 124.929 11.5055 124.929 11.5052 124.929C11.5044 124.928 11.5036 124.928 11.9893 122.888C12.4749 120.849 12.474 120.848 12.4731 120.848C12.4728 120.848 12.4719 120.848 12.4712 120.848C12.4699 120.847 12.4684 120.847 12.4669 120.847C12.4639 120.846 12.4604 120.845 12.4565 120.844C12.4488 120.843 12.4395 120.84 12.4287 120.838C12.4071 120.833 12.3793 120.827 12.3458 120.82C12.2787 120.806 12.1882 120.788 12.0773 120.769C11.8562 120.731 11.5498 120.685 11.1828 120.651C10.4612 120.585 9.44348 120.56 8.35392 120.758C7.2645 120.956 6.00338 121.398 4.91878 122.346C3.80257 123.322 3.02275 124.704 2.72609 126.502L4.79488 126.843ZM157.059 122.589V124.685C158.414 124.685 159.571 125.371 160.489 126.239C160.936 126.662 161.284 127.091 161.518 127.413C161.634 127.572 161.719 127.701 161.771 127.783C161.797 127.825 161.815 127.854 161.825 127.87C161.829 127.878 161.832 127.882 161.832 127.883C161.832 127.883 161.832 127.882 161.831 127.881C161.831 127.88 161.83 127.879 161.829 127.878C161.829 127.877 161.828 127.876 161.828 127.875C161.828 127.875 161.827 127.874 161.827 127.874C161.827 127.874 161.827 127.873 163.653 126.843C165.48 125.814 165.48 125.813 165.479 125.813C165.479 125.812 165.479 125.812 165.478 125.811C165.478 125.81 165.477 125.809 165.476 125.808C165.475 125.806 165.474 125.803 165.472 125.8C165.469 125.794 165.465 125.788 165.46 125.78C165.451 125.765 165.44 125.745 165.426 125.722C165.398 125.675 165.36 125.613 165.313 125.538C165.218 125.388 165.083 125.184 164.908 124.945C164.562 124.469 164.048 123.834 163.371 123.193C162.04 121.934 159.901 120.492 157.059 120.492V122.589ZM9.21117 125.886L8.27609 127.762C10.8214 129.031 14.8931 130.105 19.8925 131.029C24.952 131.965 31.1579 132.782 38.1003 133.464C51.9889 134.83 68.9291 135.669 85.7482 135.838C102.563 136.008 119.307 135.509 132.795 134.186C139.535 133.525 145.509 132.654 150.293 131.543C154.972 130.456 158.858 129.068 161.107 127.174L159.756 125.57L158.406 123.967C156.988 125.161 153.985 126.38 149.344 127.458C144.808 128.511 139.033 129.36 132.386 130.012C119.099 131.316 102.516 131.814 85.7905 131.645C69.0688 131.476 52.2539 130.642 38.5106 129.291C31.6372 128.615 25.5579 127.813 20.6553 126.906C15.6924 125.988 12.1249 124.995 10.1463 124.009L9.21117 125.886ZM7.19273 152.262L5.48303 153.476C6.31875 154.653 7.78635 155.513 9.31634 156.189C10.9321 156.904 12.9817 157.566 15.3583 158.183L15.8849 156.153L16.4116 154.124C14.1465 153.536 12.3381 152.94 11.0122 152.354C9.6006 151.73 9.04292 151.246 8.90243 151.048L7.19273 152.262ZM15.8849 157.657H17.9817V156.153H15.8849H13.7882V157.657H15.8849ZM15.8849 156.153L15.3583 158.183C29.3066 161.802 56.8641 164.424 84.2544 164.978C97.9801 165.255 111.729 165.015 123.786 164.11C135.8 163.208 146.29 161.637 153.411 159.189L152.73 157.206L152.048 155.223C145.455 157.489 135.408 159.032 123.473 159.928C111.582 160.82 97.971 161.06 84.3391 160.785C57.0143 160.233 29.8635 157.614 16.4116 154.124L15.8849 156.153ZM152.73 157.206L153.411 159.189C155.7 158.402 157.712 157.502 159.339 156.459C160.954 155.425 162.311 154.172 163.114 152.632L161.255 151.663L159.396 150.693C159.052 151.353 158.34 152.118 157.076 152.928C155.824 153.731 154.147 154.502 152.048 155.223L152.73 157.206ZM152.73 157.657H154.827V157.206H152.73H150.633V157.657H152.73ZM11.9893 122.888L10.4514 121.463L7.67336 124.46L9.21117 125.886L10.749 127.311L13.5271 124.314L11.9893 122.888ZM157.059 122.589L155.504 123.995L158.201 126.977L159.756 125.57L161.311 124.164L158.614 121.182L157.059 122.589Z" fill="#B05726"/>
<path d="M84.0235 59.075C30.5542 57.7624 26.891 107.1 28.3596 132.556L28.384 132.978C29.2861 148.623 30.0345 161.604 36.9962 172.207C41.2642 178.708 47.8676 184.316 58.2736 189.096C72.2251 195.505 83.9738 199.376 76.1413 210.146C68.3089 220.915 50.3596 211.125 43.5878 207.208C49.7885 211.696 56.0707 221.894 68.5537 220.915C81.0366 219.936 84.2185 217.978 87.89 214.307C100.138 202.059 100.565 196.684 111.579 189.096C120.691 182.819 128.44 178.584 133.125 172.207C142.325 159.688 143.032 144.629 141.896 129.03C140.183 105.484 141.896 60.4958 84.0235 59.075Z" fill="url(#paint0_linear_364_91)"/>
<path d="M28.3596 132.556L30.4529 132.435L30.4529 132.435L28.3596 132.556ZM84.0235 59.075L84.0749 56.9789L84.0235 59.075ZM141.896 129.03L143.988 128.877L141.896 129.03ZM87.89 214.307L89.3726 215.789L87.89 214.307ZM111.579 189.096L112.769 190.823V190.823L111.579 189.096ZM58.2736 189.096L57.3983 191.001L58.2736 189.096ZM43.5878 207.208L44.6375 205.393C43.6711 204.834 42.4361 205.131 41.8286 206.067C41.2211 207.004 41.4541 208.253 42.3585 208.907L43.5878 207.208ZM28.384 132.978L30.4773 132.857L30.4773 132.857L28.384 132.978ZM36.9962 172.207L35.2434 173.358H35.2434L36.9962 172.207ZM133.125 172.207L131.436 170.966V170.966L133.125 172.207ZM28.3596 132.556L30.4529 132.435C29.7243 119.805 30.3003 101.548 37.4779 86.6893C41.0471 79.3003 46.2265 72.7972 53.6634 68.2072C61.0983 63.6184 70.9359 60.8511 83.972 61.1712L84.0235 59.075L84.0749 56.9789C70.3764 56.6426 59.7052 59.5503 51.4609 64.6386C43.2186 69.7257 37.5485 76.902 33.7018 84.8653C26.0477 100.711 25.5264 119.851 26.2663 132.676L28.3596 132.556ZM84.0235 59.075L83.972 61.1712C98.171 61.5198 108.541 64.5357 116.164 69.0935C123.772 73.6418 128.778 79.8042 132.136 86.6761C138.929 100.58 138.931 117.166 139.805 129.182L141.896 129.03L143.988 128.877C143.149 117.349 143.15 99.6667 135.904 84.8352C132.241 77.3393 126.717 70.5165 118.316 65.4941C109.931 60.4811 98.8124 57.3407 84.0749 56.9789L84.0235 59.075ZM87.89 214.307L89.3726 215.789C95.6049 209.557 98.8618 205.034 101.844 201.252C104.78 197.528 107.492 194.458 112.769 190.823L111.579 189.096L110.39 187.369C104.652 191.322 101.643 194.733 98.5507 198.655C95.5036 202.52 92.4231 206.808 86.4073 212.824L87.89 214.307ZM58.2736 189.096L57.3983 191.001C60.9553 192.635 64.2167 194.038 67.1345 195.459C70.045 196.877 72.3825 198.207 74.0265 199.59C75.6585 200.963 76.3955 202.209 76.5316 203.444C76.6698 204.698 76.2443 206.439 74.4456 208.912L76.1413 210.146L77.8371 211.379C79.9546 208.467 80.9977 205.686 80.6999 202.985C80.4 200.265 78.7964 198.123 76.7264 196.381C74.6684 194.65 71.9423 193.137 68.9708 191.689C66.0067 190.246 62.5676 188.761 59.1489 187.191L58.2736 189.096ZM76.1413 210.146L74.4456 208.912C71.3182 213.212 66.0624 213.684 59.9792 212.151C53.9756 210.638 48.0162 207.347 44.6375 205.393L43.5878 207.208L42.5381 209.024C45.9312 210.986 52.3323 214.549 58.9544 216.217C65.4969 217.866 73.132 217.848 77.8371 211.379L76.1413 210.146ZM43.5878 207.208L42.3585 208.907C43.7728 209.931 45.2212 211.303 46.9057 212.902C48.5514 214.464 50.3857 216.205 52.4409 217.777C56.5991 220.958 61.7917 223.549 68.7176 223.006L68.5537 220.915L68.3897 218.825C62.8327 219.261 58.6427 217.242 54.9889 214.446C53.138 213.03 51.459 211.442 49.7927 209.86C48.1653 208.315 46.5031 206.73 44.8171 205.51L43.5878 207.208ZM68.5537 220.915L68.7176 223.006C75.0174 222.511 79.173 221.759 82.2717 220.58C85.4639 219.366 87.4204 217.741 89.3726 215.789L87.89 214.307L86.4073 212.824C84.6881 214.543 83.2179 215.734 80.7806 216.661C78.2497 217.624 74.5728 218.34 68.3897 218.825L68.5537 220.915ZM28.3596 132.556L26.2663 132.676L26.2907 133.099L28.384 132.978L30.4773 132.857L30.4529 132.435L28.3596 132.556ZM28.384 132.978L26.2907 133.099C27.1842 148.594 27.9148 162.196 35.2434 173.358L36.9962 172.207L38.7489 171.057C32.1542 161.012 31.388 148.652 30.4773 132.857L28.384 132.978ZM36.9962 172.207L35.2434 173.358C39.7746 180.26 46.7222 186.097 57.3983 191.001L58.2736 189.096L59.1489 187.191C49.0131 182.534 42.7538 177.157 38.7489 171.057L36.9962 172.207ZM111.579 189.096L112.769 190.823C117.183 187.782 121.586 185.024 125.238 182.39C128.968 179.7 132.282 176.896 134.815 173.449L133.125 172.207L131.436 170.966C129.283 173.895 126.379 176.397 122.786 178.988C119.114 181.636 115.087 184.134 110.39 187.369L111.579 189.096ZM133.125 172.207L134.815 173.449C144.486 160.288 145.129 144.564 143.988 128.877L141.896 129.03L139.805 129.182C140.934 144.694 140.164 159.088 131.436 170.966L133.125 172.207Z" fill="#2A5B3D"/>
<path d="M42.2683 208.838C43.1478 207.752 44.0274 206.665 44.9069 205.579C44.4925 205.272 44.0752 204.983 43.6495 204.702C38.9237 201.919 32.9587 198.179 26.7236 201.738C25.3548 202.692 23.756 204.524 24.1452 206.705C24.5393 208.754 25.9035 209.988 27.2071 210.98C27.6199 211.282 28.0496 211.556 28.4972 211.799C28.6728 211.893 28.8834 211.914 29.0799 211.86C29.2766 211.806 29.4431 211.682 29.5456 211.511C29.6481 211.34 29.679 211.135 29.6342 210.936C29.5892 210.737 29.4723 210.561 29.3063 210.451C28.947 210.209 28.5971 209.938 28.2699 209.649C27.215 208.723 26.3127 207.498 26.2595 206.439C26.1818 205.428 26.9758 204.555 28.1428 203.867C32.0051 201.851 37.4185 205.013 41.2712 207.996C41.6175 208.273 41.9519 208.554 42.2683 208.838Z" fill="#2A5B3D"/>
<path d="M54.5157 109.938C54.5157 111.651 53.7814 112.63 53.0471 113.365C52.0681 114.099 50.4292 114.344 48.8862 114.344C47.5123 114.344 46.2586 113.923 45.3073 113.23C44.1993 112.423 43.2566 111.247 43.2566 109.938C43.2566 108.959 43.7676 107.552 44.7252 106.756C45.7018 105.945 47.3845 105.532 48.8862 105.532C50.2441 105.532 51.8551 105.833 52.8024 106.511C53.9296 107.319 54.5157 108.616 54.5157 109.938Z" fill="#EA999E"/>
<path d="M114.614 109.936C114.563 111.649 115.268 112.649 115.98 113.405C116.937 114.168 118.568 114.462 120.11 114.508C121.483 114.549 122.749 114.166 123.721 113.501C124.852 112.728 125.829 111.581 125.869 110.272C125.898 109.294 125.429 107.871 124.496 107.048C123.544 106.208 121.874 105.745 120.373 105.7C119.016 105.66 117.396 105.912 116.429 106.562C115.278 107.336 114.654 108.615 114.614 109.936Z" fill="#EA999E"/>
<path d="M95.1467 107.491C95.1467 107.491 93.6781 112.875 84.8666 112.875C76.0551 112.875 74.3418 107.491 74.3418 107.491" stroke="#2A5B3D" stroke-width="3.14516" stroke-linecap="round"/>
<ellipse cx="61.8586" cy="99.4132" rx="5.62956" ry="7.58767" fill="#316042"/>
<ellipse cx="63.0824" cy="95.9866" rx="1.46858" ry="2.20287" fill="white"/>
<ellipse cx="107.385" cy="99.4132" rx="5.62956" ry="7.58767" fill="#316042"/>
<ellipse cx="108.608" cy="95.9866" rx="1.46858" ry="2.20287" fill="white"/>
<path d="M62.4345 138.43C66.0244 141.612 72.1272 148.955 67.8193 152.871C63.5115 156.787 54.7653 152.545 50.9307 149.934" stroke="#2A5B3D" stroke-width="3.14516" stroke-linecap="round"/>
<path d="M108.463 138.675C104.873 141.857 98.7703 149.2 103.078 153.116C107.386 157.032 116.132 152.789 119.967 150.179" stroke="#2A5B3D" stroke-width="3.14516" stroke-linecap="round"/>
<path d="M83.1529 57.0691C83.0714 54.3767 81.2659 45.7724 78.7472 46.5443C73.2941 48.2154 64.0525 45.9543 57.9423 41.1595C47.0484 32.6109 40.4592 17.6621 45.7041 10.3193C50.949 2.97645 70.1805 11.2984 75.0758 15.9489C79.971 20.5994 83.3177 25.6981 85.1111 33.327C85.8776 36.5877 85.8176 40.9567 85.5995 44.2913C86.0093 40.9405 86.7072 36.5525 87.8035 33.327C90.8751 24.2895 93.6525 18.8349 101.021 12.767C111.026 4.52758 127.945 -1.18453 133.085 4.20026C138.225 9.58505 133.501 28.12 123.784 37.4881C118.152 42.9176 113.501 44.6318 105.916 46.5443C99.4174 48.1827 88.7825 47.5234 88.7825 47.5234L87.8035 57.8035L83.1529 57.0691Z" fill="#67A657" stroke="#2A5B3D" stroke-width="4.19355" stroke-linecap="round"/>
<path d="M59.9584 20.0279C59.7448 19.8973 59.4828 19.8572 59.2333 19.9116C58.9836 19.9663 58.767 20.111 58.6276 20.3188C58.4882 20.5266 58.4366 20.782 58.4807 21.0337C58.525 21.2852 58.6615 21.5124 58.8634 21.6604C59.3531 22.0217 59.8734 22.4385 60.3614 22.8498C68.8902 30.5949 77.5817 40.0625 81.2617 50.0545C81.4058 50.5829 81.5035 51.1008 81.534 51.5412C81.5971 52.2341 81.9337 52.8618 82.4864 53.284C83.0381 53.7063 83.7606 53.8885 84.4784 53.7928C85.1962 53.6971 85.8457 53.3319 86.2675 52.7798C86.6903 52.2276 86.8506 51.5336 86.73 50.8484C86.5895 50.0054 86.3572 49.2144 86.09 48.4811C80.3542 36.4338 71.2319 28.6854 61.6627 21.1642C61.1148 20.7756 60.5293 20.378 59.9584 20.0279Z" fill="#2A5B3D"/>
<path d="M117.128 16.9686C117.371 16.9017 117.635 16.9357 117.86 17.0585C118.085 17.1815 118.253 17.3834 118.328 17.6242C118.403 17.8651 118.379 18.1265 118.264 18.3557C118.148 18.5845 117.951 18.7624 117.712 18.8454C116.974 19.1038 116.23 19.4112 115.512 19.7483C102.846 26.4519 93.059 39.4016 88.3456 52.2566C88.1563 52.9315 88.0011 53.6597 87.9539 54.2337C87.885 54.9258 87.5434 55.5528 86.9908 55.975C86.439 56.3973 85.7215 56.5802 85.0095 56.4852C84.2975 56.3903 83.653 56.0258 83.2311 55.4737C82.8085 54.9214 82.6431 54.2268 82.7579 53.5409C82.9216 52.5253 83.2099 51.5537 83.5103 50.705C90.0522 36.1558 100.535 24.3123 114.674 17.7905C115.474 17.4779 116.303 17.1967 117.128 16.9686Z" fill="#2A5B3D"/>
<ellipse cx="82.1263" cy="211.309" rx="82.1263" ry="13.7876" fill="#E2DAC0"/>
<path d="M26.3756 203.516C16.6386 187.937 15.885 157.657 15.885 157.657V156.153C11.2433 154.949 8.16899 153.637 7.19278 152.262C1.42075 144.132 4.79493 126.844 4.79493 126.844L5.69495 125.286L8.69226 124.087L9.21122 125.886C27.3073 134.902 145.088 137.924 159.756 125.57L159.157 124.087C161.209 124.087 160.733 123.606 161.855 124.646C163.027 125.733 163.653 126.844 163.653 126.844C163.653 126.844 165.852 142.845 161.255 151.663C160.108 153.863 157.117 155.698 152.73 157.206V157.657C152.73 157.657 151.905 188.142 141.772 203.516C131.64 218.891 33.8688 215.505 26.3756 203.516Z" fill="#E87537"/>
<path d="M15.885 157.657H13.7882V157.683L13.7889 157.709L15.885 157.657ZM26.3756 203.516L24.5975 204.627L26.3756 203.516ZM141.772 203.516L140.021 202.362L141.772 203.516ZM152.73 157.657L154.826 157.714L154.827 157.686V157.657H152.73ZM161.255 151.663L163.114 152.632V152.632L161.255 151.663ZM163.653 126.844L165.731 126.558L165.676 126.162L165.48 125.814L163.653 126.844ZM7.19278 152.262L5.48308 153.476H5.48308L7.19278 152.262ZM4.79493 126.844L2.97956 125.794L2.80414 126.098L2.73698 126.442L4.79493 126.844ZM9.21122 125.886L7.19665 126.467C7.35935 127.031 7.75089 127.501 8.27614 127.762L9.21122 125.886ZM159.756 125.57L161.107 127.174L162.27 126.195L161.701 124.785L159.756 125.57ZM15.885 156.153L16.4116 154.124L15.885 156.153ZM152.73 157.206L152.048 155.223V155.223L152.73 157.206ZM159.157 124.087V121.991C158.46 121.991 157.809 122.337 157.419 122.915C157.029 123.493 156.952 124.227 157.213 124.873L159.157 124.087ZM5.69495 125.286L4.91623 123.34C4.47985 123.514 4.11477 123.83 3.87958 124.237L5.69495 125.286ZM8.69226 124.087L10.7068 123.506L10.0645 121.28L7.91354 122.141L8.69226 124.087ZM161.855 124.646L163.28 123.108V123.108L161.855 124.646ZM15.885 157.657C13.7889 157.709 13.7889 157.71 13.7889 157.71C13.7889 157.711 13.7889 157.711 13.7889 157.712C13.789 157.713 13.789 157.715 13.7891 157.718C13.7892 157.722 13.7894 157.728 13.7896 157.737C13.79 157.753 13.7907 157.776 13.7916 157.807C13.7934 157.868 13.7963 157.958 13.8003 158.075C13.8085 158.307 13.8217 158.648 13.8418 159.085C13.8822 159.96 13.9507 161.222 14.0636 162.783C14.2891 165.903 14.6925 170.229 15.4046 175.051C16.8162 184.609 19.484 196.446 24.5975 204.627L26.3756 203.516L28.1536 202.405C23.5302 195.007 20.9527 183.915 19.5532 174.438C18.8598 169.743 18.4662 165.525 18.2462 162.481C18.1362 160.96 18.0698 159.734 18.0309 158.892C18.0115 158.471 17.999 158.146 17.9913 157.928C17.9875 157.819 17.9849 157.736 17.9833 157.682C17.9825 157.655 17.9819 157.635 17.9816 157.622C17.9814 157.616 17.9813 157.611 17.9812 157.608C17.9811 157.607 17.9811 157.606 17.9811 157.605C17.9811 157.605 17.9811 157.605 17.9811 157.605C17.9811 157.605 17.9811 157.605 15.885 157.657ZM26.3756 203.516L24.5975 204.627C25.3136 205.773 26.4478 206.696 27.7145 207.458C29.0049 208.234 30.5842 208.932 32.3687 209.565C35.9386 210.832 40.5434 211.912 45.7914 212.803C56.3014 214.589 69.6525 215.661 83.0509 215.874C96.4461 216.087 109.978 215.442 120.841 213.76C126.267 212.921 131.099 211.812 134.94 210.388C138.694 208.997 141.872 207.175 143.523 204.67L141.772 203.516L140.021 202.362C139.139 203.701 137.046 205.136 133.483 206.456C130.009 207.743 125.482 208.799 120.2 209.616C109.647 211.25 96.3682 211.892 83.1175 211.681C69.8699 211.471 56.7401 210.41 46.4938 208.669C41.3638 207.797 37.0217 206.766 33.7709 205.613C32.1451 205.036 30.8456 204.447 29.8756 203.864C28.8819 203.266 28.3742 202.758 28.1536 202.405L26.3756 203.516ZM141.772 203.516L143.523 204.67C148.855 196.579 151.644 184.725 153.123 175.141C153.869 170.304 154.295 165.957 154.533 162.82C154.653 161.25 154.726 159.98 154.769 159.1C154.79 158.66 154.805 158.317 154.813 158.082C154.818 157.965 154.821 157.874 154.823 157.813C154.824 157.782 154.825 157.758 154.825 157.741C154.825 157.733 154.825 157.727 154.826 157.722C154.826 157.72 154.826 157.718 154.826 157.717C154.826 157.716 154.826 157.715 154.826 157.715C154.826 157.714 154.826 157.714 152.73 157.657C150.634 157.601 150.634 157.6 150.634 157.6C150.634 157.6 150.634 157.6 150.634 157.601C150.634 157.601 150.634 157.602 150.634 157.603C150.634 157.606 150.634 157.611 150.633 157.617C150.633 157.63 150.632 157.651 150.631 157.678C150.63 157.732 150.627 157.815 150.623 157.925C150.615 158.144 150.601 158.471 150.58 158.894C150.539 159.741 150.468 160.973 150.352 162.502C150.119 165.56 149.705 169.796 148.978 174.501C147.512 184.003 144.822 195.078 140.021 202.362L141.772 203.516ZM161.255 151.663L163.114 152.632C165.659 147.751 166.25 141.113 166.275 135.957C166.288 133.331 166.153 130.992 166.015 129.31C165.946 128.468 165.876 127.787 165.822 127.314C165.796 127.077 165.773 126.892 165.757 126.764C165.749 126.7 165.743 126.651 165.738 126.616C165.736 126.599 165.734 126.585 165.733 126.576C165.732 126.571 165.732 126.567 165.731 126.564C165.731 126.562 165.731 126.561 165.731 126.56C165.731 126.56 165.731 126.559 165.731 126.559C165.731 126.558 165.731 126.558 163.653 126.844C161.576 127.129 161.576 127.129 161.576 127.128C161.576 127.128 161.576 127.128 161.576 127.128C161.576 127.128 161.576 127.129 161.576 127.129C161.576 127.13 161.576 127.132 161.577 127.135C161.578 127.141 161.579 127.15 161.581 127.163C161.584 127.19 161.589 127.231 161.596 127.287C161.61 127.397 161.631 127.565 161.655 127.783C161.704 128.219 161.77 128.857 161.835 129.653C161.966 131.247 162.094 133.46 162.081 135.936C162.057 140.986 161.448 146.757 159.396 150.693L161.255 151.663ZM7.19278 152.262L8.90248 151.048C6.4448 147.587 5.80433 141.855 5.92557 136.552C5.98446 133.976 6.21789 131.637 6.43734 129.941C6.54686 129.094 6.65236 128.412 6.72977 127.945C6.76846 127.712 6.80009 127.532 6.82162 127.414C6.83239 127.354 6.84063 127.31 6.84597 127.281C6.84864 127.267 6.85058 127.257 6.85174 127.251C6.85233 127.248 6.85272 127.246 6.85291 127.245C6.853 127.245 6.85305 127.244 6.85304 127.244C6.85304 127.244 6.853 127.245 6.853 127.245C6.85294 127.245 6.85288 127.245 4.79493 126.844C2.73698 126.442 2.73689 126.442 2.73678 126.443C2.73673 126.443 2.73661 126.444 2.73651 126.444C2.7363 126.445 2.73604 126.447 2.73573 126.448C2.73511 126.452 2.73428 126.456 2.73327 126.461C2.73124 126.472 2.72843 126.486 2.72489 126.505C2.71781 126.543 2.70781 126.597 2.69527 126.666C2.6702 126.804 2.63497 127.004 2.59267 127.259C2.5081 127.77 2.39509 128.501 2.27846 129.403C2.04563 131.202 1.79626 133.694 1.73312 136.456C1.61027 141.83 2.16872 148.808 5.48308 153.476L7.19278 152.262ZM9.21122 125.886L8.27614 127.762C10.8215 129.031 14.8932 130.105 19.8925 131.029C24.952 131.965 31.1579 132.782 38.1004 133.464C51.9889 134.83 68.9291 135.669 85.7482 135.838C102.563 136.008 119.307 135.509 132.795 134.186C139.535 133.525 145.509 132.654 150.293 131.543C154.972 130.456 158.858 129.068 161.107 127.174L159.756 125.57L158.406 123.967C156.988 125.161 153.985 126.38 149.344 127.458C144.808 128.511 139.033 129.36 132.386 130.012C119.099 131.316 102.517 131.814 85.7905 131.645C69.0689 131.476 52.254 130.642 38.5107 129.291C31.6372 128.615 25.5579 127.813 20.6553 126.906C15.6925 125.988 12.125 124.995 10.1463 124.009L9.21122 125.886ZM7.19278 152.262L5.48308 153.476C6.3188 154.653 7.7864 155.513 9.31639 156.189C10.9321 156.904 12.9818 157.566 15.3583 158.183L15.885 156.153L16.4116 154.124C14.1466 153.536 12.3382 152.94 11.0123 152.354C9.60065 151.73 9.04297 151.246 8.90248 151.048L7.19278 152.262ZM15.885 157.657H17.9818V156.153H15.885H13.7882V157.657H15.885ZM15.885 156.153L15.3583 158.183C29.3067 161.802 56.8641 164.424 84.2544 164.978C97.9801 165.255 111.729 165.015 123.786 164.11C135.8 163.208 146.29 161.637 153.411 159.189L152.73 157.206L152.048 155.223C145.455 157.489 135.408 159.032 123.473 159.928C111.582 160.82 97.9711 161.06 84.3392 160.785C57.0143 160.233 29.8636 157.614 16.4116 154.124L15.885 156.153ZM152.73 157.206L153.411 159.189C155.7 158.402 157.712 157.502 159.339 156.459C160.954 155.425 162.311 154.172 163.114 152.632L161.255 151.663L159.396 150.693C159.052 151.353 158.34 152.119 157.076 152.928C155.824 153.731 154.147 154.502 152.048 155.223L152.73 157.206ZM152.73 157.657H154.827V157.206H152.73H150.633V157.657H152.73ZM159.157 124.087L157.213 124.873L157.812 126.356L159.756 125.57L161.701 124.785L161.101 123.302L159.157 124.087ZM4.79493 126.844L6.6103 127.893L7.51032 126.336L5.69495 125.286L3.87958 124.237L2.97956 125.794L4.79493 126.844ZM5.69495 125.286L6.47367 127.233L9.47098 126.034L8.69226 124.087L7.91354 122.141L4.91623 123.34L5.69495 125.286ZM8.69226 124.087L6.67769 124.669L7.19665 126.467L9.21122 125.886L11.2258 125.304L10.7068 123.506L8.69226 124.087ZM159.157 124.087V126.184C159.76 126.184 160.193 126.148 160.517 126.113C160.594 126.104 160.662 126.096 160.717 126.089C160.775 126.082 160.811 126.078 160.842 126.075C160.912 126.067 160.867 126.075 160.782 126.072C160.67 126.068 160.513 126.048 160.342 125.986C160.182 125.929 160.08 125.862 160.05 125.841C160.028 125.825 160.041 125.832 160.118 125.899C160.191 125.964 160.287 126.051 160.43 126.184L161.855 124.646L163.28 123.108C163.043 122.888 162.74 122.603 162.447 122.399C162.027 122.107 161.534 121.902 160.928 121.881C160.587 121.869 160.131 121.936 160.057 121.944C159.857 121.966 159.58 121.991 159.157 121.991V124.087ZM161.855 124.646L160.43 126.184C160.895 126.615 161.257 127.057 161.502 127.392C161.624 127.557 161.713 127.691 161.768 127.778C161.795 127.821 161.814 127.852 161.824 127.869C161.829 127.877 161.832 127.882 161.832 127.883C161.832 127.883 161.832 127.882 161.831 127.881C161.831 127.88 161.83 127.879 161.829 127.878C161.829 127.877 161.828 127.876 161.828 127.876C161.828 127.875 161.828 127.875 161.827 127.874C161.827 127.874 161.827 127.874 161.827 127.874C161.827 127.873 161.827 127.873 163.653 126.844C165.48 125.814 165.48 125.814 165.48 125.813C165.479 125.813 165.479 125.813 165.479 125.813C165.479 125.812 165.479 125.812 165.478 125.811C165.478 125.81 165.477 125.809 165.476 125.808C165.475 125.805 165.474 125.803 165.472 125.8C165.468 125.794 165.464 125.787 165.46 125.779C165.451 125.763 165.439 125.743 165.424 125.719C165.395 125.67 165.356 125.606 165.307 125.528C165.208 125.372 165.067 125.161 164.885 124.913C164.524 124.42 163.987 123.763 163.28 123.108L161.855 124.646Z" fill="#B05726"/>
<defs>
<linearGradient id="paint0_linear_364_91" x1="85.3895" y1="174.165" x2="85.2125" y2="220.981" gradientUnits="userSpaceOnUse">
<stop stop-color="#9ED88F"/>
<stop offset="0.802885" stop-color="#9C8653"/>
<stop offset="1" stop-color="#9C5530"/>
</linearGradient>
</defs>
</svg>
